# xmcd
#
# Track frame offsets:
#	150
#	16908
#	33058
#	35230
#	53875
#	73783
#	85063
#	106170
#	127298
#	130555
#	150505
#	172705
#	192610
#	195913
#	215355
#	219118
#	241928
#
# Disc length: 3559 seconds
#
# Revision: 1
# Processed by: cddbd v1.5.1PL0 Copyright (c) Steve Scherf et al.
# Submitted via: CDex 1.50Beta5
#
DISCID=dc0de511
DTITLE=Loop Junktion - Turkey
DYEAR=1900
DGENRE=
TTITLE0=Watchin'
TTITLE1=イカンガー
TTITLE2=〜FI-FO〜
TTITLE3=舞Life
TTITLE4=Chu-Say
TTITLE5=〜GPconnection〜
TTITLE6=Ghost
TTITLE7=Timing
TTITLE8=〜K vs083 in the Act〜
TTITLE9=Mystery Train
TTITLE10=Sink or Swim
TTITLE11=248
TTITLE12=〜High noon〜
TTITLE13=My Home Town is
TTITLE14=〜Dawn〜
TTITLE15=Nothing
TTITLE16=History
EXTD=
EXTT0=
EXTT1=
EXTT2=
EXTT3=
EXTT4=
EXTT5=
EXTT6=
EXTT7=
EXTT8=
EXTT9=
EXTT10=
EXTT11=
EXTT12=
EXTT13=
EXTT14=
EXTT15=
EXTT16=
PLAYORDER=
